<svg xmlns="http://www.w3.org/2000/svg" viewBox="0 0 100 100" width="100" height="100">
  <defs>
    <radialGradient id="slimeGrad" cx="45%" cy="35%" r="60%">
      <stop offset="0%" stop-color="#a7f3d0"/>
      <stop offset="40%" stop-color="#34d399"/>
      <stop offset="90%" stop-color="#059669"/>
    </radialGradient>
  </defs>

  <!-- Stretched Teardrop Jelly being pinched/dragged from top! -->
  <path d="M 50 12 C 54 12 55 24 60 42 C 68 64 74 84 68 92 C 62 98 38 98 32 92 C 26 84 32 64 40 42 C 45 24 46 12 50 12 Z" fill="url(#slimeGrad)"/>

  <!-- Highlights -->
  <ellipse cx="44" cy="40" rx="4" ry="16" fill="#ffffff" opacity="0.6" transform="rotate(-10 44 40)"/>
  <circle cx="42" cy="74" r="4" fill="#ffffff" opacity="0.5"/>

  <!-- Dangling Big Surprised Eyes -->
  <ellipse cx="42" cy="62" rx="4.5" ry="6" fill="#064e3b"/>
  <circle cx="40.5" cy="59" r="2" fill="#ffffff"/>
  <ellipse cx="58" cy="62" rx="4.5" ry="6" fill="#064e3b"/>
  <circle cx="56.5" cy="59" r="2" fill="#ffffff"/>

  <!-- Cheeks Blush -->
  <ellipse cx="33" cy="72" rx="4" ry="2.2" fill="#ec4899" opacity="0.5"/>
  <ellipse cx="67" cy="72" rx="4" ry="2.2" fill="#ec4899" opacity="0.5"/>

  <!-- Surprised 'O' Mouth -->
  <ellipse cx="50" cy="70" rx="3" ry="4" fill="#ec4899" stroke="#064e3b" stroke-width="1.2"/>
</svg>
